<svg width="295" height="311" viewBox="0 0 295 311" fill="none" xmlns="http://www.w3.org/2000/svg">
<g clip-path="url(#clip0_2066_883)">
<path d="M276.074 217.706C276.539 223.212 278.081 244.545 266.35 264.527C238.04 312.768 151.667 320.376 124.865 290.426C112.05 276.109 121.691 263.073 107.779 246.528C84.8312 219.231 45.8952 239.596 21.0028 219.808C-11.1754 194.23 -5.99409 112.594 33.8796 60.4003C80.3862 -0.466106 174.976 -16.4118 207.682 17.505C233.554 44.3294 201.938 82.8886 235.04 143.261C251.001 172.375 273.268 184.653 276.074 217.706Z" fill="#F7EFEF"/>
<path d="M275.233 232.204C257.342 232.204 245.736 225.62 230.373 232.204C219.378 236.916 214.878 247.774 211.829 246.48C209.036 245.289 213.982 236.694 208.911 232.204C205.189 228.912 200.146 231.703 194.937 227.172C191.36 224.061 189.145 219.773 189.145 215.027V184.27C189.145 174.783 197.993 167.092 208.911 167.092H275.24C286.158 167.092 295.007 174.783 295.007 184.27V215.027C295.007 224.513 286.158 232.204 275.24 232.204H275.233Z" fill="#D2B7D6"/>
<path d="M259.62 216.718C259.085 218.326 258.071 219.599 256.897 220.518C254.321 222.537 250.91 222.885 247.931 221.437C245.889 220.442 243.944 218.639 241.812 218.702C239.687 218.639 237.735 220.449 235.693 221.437C232.713 222.885 229.303 222.537 226.726 220.518C225.553 219.599 224.539 218.326 224.004 216.718C223.469 215.11 223.462 213.147 224.171 211.547C224.796 210.141 225.886 209.138 227.011 208.38C228.136 207.614 229.352 207.064 230.428 206.201C234.505 202.93 235.624 196.875 241.805 196.875C247.986 196.875 249.105 202.93 253.182 206.201C254.258 207.064 255.474 207.621 256.599 208.38C257.724 209.145 258.814 210.148 259.439 211.547C260.148 213.147 260.141 215.11 259.606 216.718H259.62Z" fill="white"/>
<path d="M239.937 187.353C239.999 190.715 237.832 193.659 234.484 193.944C231.137 194.23 228.06 190.875 227.657 186.859C227.233 182.613 230.623 176.335 233.991 176.377C237.811 176.433 239.86 183.128 239.937 187.353Z" fill="white"/>
<path d="M227.685 196.053C228.296 198.99 226.893 201.872 224.004 202.603C221.115 203.334 217.871 200.828 216.85 197.369C215.774 193.715 217.697 187.729 220.656 187.29C224.011 186.796 226.914 192.371 227.685 196.053Z" fill="white"/>
<path d="M243.687 187.353C243.625 190.715 245.792 193.659 249.139 193.944C252.487 194.23 255.564 190.875 255.967 186.859C256.39 182.613 253.001 176.335 249.633 176.377C245.813 176.433 243.764 183.128 243.687 187.353Z" fill="white"/>
<path d="M255.932 196.053C255.321 198.99 256.724 201.872 259.613 202.603C262.502 203.334 265.746 200.828 266.767 197.369C267.843 193.715 265.92 187.729 262.961 187.29C259.606 186.796 256.703 192.371 255.932 196.053Z" fill="white"/>
<path d="M272.393 81.4824C279.935 73.9654 281.206 63.0798 276.775 56.586C271.191 48.3939 255.946 46.2989 245.674 56.3632C237.443 58.0754 223.997 59.892 208.224 57.0244C183.262 52.4795 178.039 40.856 153.251 36.9027C146.68 35.8587 127.803 33.0955 106.89 41.8026C85.7135 50.6211 74.059 66.3719 69.4403 73.4782C66.6761 74.919 32.1156 93.7392 27.9692 133.565C24.5521 166.41 44.3604 189.142 47.6317 192.775C42.0545 203.591 36.4843 214.407 30.9071 225.23C32.3518 225.78 34.6021 226.587 37.408 227.353C48.1943 230.304 53.3964 228.961 69.7112 230.318C78.8236 231.077 83.0117 231.982 86.5052 232.991C89.9363 233.986 93.7424 235.107 97.861 237.633C102.306 240.362 106.202 244.162 110.161 250.252C117.878 262.112 116.794 268.71 121.371 278.782C127.198 291.609 137.582 300.087 144.59 304.019C167.808 317.069 191.902 307.722 195.257 306.358C192.576 298.179 176.657 249.138 172.337 212.765C171.198 203.153 170.566 191.209 177.108 180.379C180.949 174.024 185.971 170.106 190.444 166.626C198.104 160.661 203.279 159.06 213.322 153.944C224.629 148.279 233.366 142.558 237.075 139.801C243.916 134.714 262.308 121.044 269.552 97.2123C271.511 90.7672 272.163 85.1991 272.406 81.4685L272.393 81.4824Z" fill="#4A4A4A"/>
<path d="M241.604 63.4835C241.604 64.9868 241.749 71.8287 247.077 77.3133C254.203 84.6353 264.197 82.9579 265.037 82.7978C265.246 84.2943 267.26 100.442 255.619 111.112C245.278 120.591 228.574 121.698 215.322 113.088C211.419 109.574 207.745 108.362 206.342 109.574C206.147 109.741 205.203 110.638 205.904 113.673C208.557 116.262 214.648 121.489 224.08 123.842C235.471 126.688 244.792 123.612 248.174 122.304C245.764 124.767 241.659 128.784 236.131 133.182C209.641 154.237 189.61 152.991 175.386 173.175C170.823 179.655 168.85 185.509 168.232 187.492C164.141 200.556 166.468 211.978 167.892 218.535C172.469 239.61 179.38 270.576 188.964 308.501C181.033 310.77 174.365 311.084 169.982 310.986C163.766 310.847 146.583 309.531 131.435 296.794C127.983 293.892 123.788 290.363 120.267 284.287C112.328 270.589 117.76 261.131 109.099 246.535C107.39 243.654 104.668 239.171 99.4585 235.343C92.5895 230.29 85.4704 229.378 73.6145 228.536C63.4603 227.819 51.0489 227.235 36.783 227.221C42.1657 217.463 47.5484 207.712 52.9311 197.953C58.7374 203.549 71.4198 214.066 90.2141 217.17C98.5972 218.555 116.815 221.569 129.442 210.245C136.415 203.988 138.832 195.921 139.374 193.951C140.207 190.931 141.652 184.026 138.693 173.078C137.908 170.175 134.276 157.585 118.447 140.108C104.438 124.635 90.3808 115.838 91.3879 104.597C91.4296 104.124 91.5754 102.954 91.7768 101.674C93.5549 90.2034 96.7914 88.3451 95.7705 84.0159C94.4925 78.5939 88.0749 75.8099 86.5261 75.1417C82.8381 73.5409 79.4834 73.5409 77.6707 73.6801C80.3933 70.1095 104.049 40.0626 141.43 41.2945C159.085 41.8722 172.295 49.1873 178.977 53.607C189.179 59.0777 206.314 66.1701 227.602 65.2374C232.686 65.0147 237.374 64.3674 241.617 63.4835H241.604Z" fill="white"/>
<path d="M97.8541 237.64C103.869 241.378 107.022 245.484 107.73 246.438C111.655 251.686 113.099 256.927 113.697 259.92C114.579 245.589 115.468 231.258 116.35 216.927C111.405 217.908 106.286 218.862 99.7294 218.437C76.3163 216.934 58.8416 203.89 52.5213 197.898C47.2775 207.67 42.0337 217.442 36.7899 227.214C38.9708 227.687 42.3879 228.369 46.6107 228.968C62.0782 231.16 66.4816 229.093 79.1709 231.306C90.61 233.304 96.1594 236.582 97.861 237.633L97.8541 237.64Z" fill="#D4B393"/>
<path d="M125.157 148.202C134.213 126.487 145.903 114.954 155.091 108.404C165.53 100.964 174.684 98.5626 182.102 87.9205C189.089 77.8909 190.319 66.5877 190.277 58.6531C185.61 55.7298 178.754 51.8183 169.982 48.1155C165.732 46.3267 162.03 44.7676 156.939 43.4591C145.208 40.4523 135.471 41.1832 132.019 41.5312C118.836 42.8745 109.529 47.6909 104.57 50.3079C90.3531 57.8179 81.4907 67.757 76.8303 73.868C88.0541 74.5779 91.8533 77.9745 93.3327 80.7446C97.4513 88.4634 87.2693 98.305 92.1658 110.743C92.8743 112.552 94.1522 114.292 96.6942 117.766C103.535 127.12 108.682 129.507 117.572 139.126C119.371 141.075 122.087 144.138 125.164 148.195L125.157 148.202Z" fill="#D4B393"/>
<path d="M85.5885 83.2363C90.3392 88.4634 83.0812 96.8156 84.4217 108.404C85.6093 118.67 92.3256 120.932 108.078 138.695C124.011 156.659 134.186 168.456 134.068 183.616C134.033 187.666 133.22 198.225 125.601 205.561C113.773 216.948 94.2981 212.166 87.054 210.391C64.9814 204.976 51.799 188.766 46.3191 180.539C42.8603 175.354 31.2475 157.341 34.1993 132.987C36.3385 115.337 45.0342 103.901 49.8196 97.5742C59.9182 84.2456 68.1347 81.9696 70.1141 81.4754C72.2255 80.9534 81.4421 78.6705 85.5885 83.2294V83.2363Z" fill="#A47551"/>
<path d="M134.838 77.4594C134.825 75.7751 136.019 74.4596 137.374 74.3552C138.346 74.2786 139.318 74.8354 139.895 75.7472C141.207 81.0578 145.048 85.1016 149.757 86.0413C154.112 86.9043 157.654 84.8024 158.057 84.5588C161.516 82.429 162.738 79.1438 163.099 77.9466C164.815 72.3507 161.676 67.6595 161.245 67.0401C160.759 65.7525 161.314 64.2908 162.516 63.6644C163.752 63.0241 165.315 63.4486 166.058 64.6597C169.711 70.1025 170.114 77.0627 167.1 82.6865C163.634 89.1385 156.307 92.6325 149.104 91.4563C141.923 90.28 136.193 84.6701 134.825 77.4664L134.838 77.4594Z" fill="#313F44"/>
</g>
<defs>
<clipPath id="clip0_2066_883">
<rect width="295" height="311" fill="white"/>
</clipPath>
</defs>
</svg>
